<svg width="16" height="16" viewBox="0 0 500 500" fill="none" xmlns="http://www.w3.org/2000/svg">
<rect width="500" height="500" rx="80" fill="url(#paint0_linear_5_74)"/>
<path d="M235.605 292.714H190.445V407H130V94H255.753C269.996 94 284.238 96.4024 297.786 101.55C322.451 111.16 342.599 129.693 353.368 153.717C358.578 165.386 361.358 178.084 361.358 190.783C361.358 208.286 357.884 223.044 350.936 234.37C344.683 245.009 336.693 254.618 327.314 262.855C317.24 271.435 305.776 278.299 293.618 282.761L369 407H300.913L235.605 292.714ZM190.445 235.742H255.753C267.911 236.086 279.375 231.624 288.06 223.044C304.734 207.943 305.429 182.203 290.144 166.072C289.449 165.386 288.754 164.7 288.06 164.013C279.375 155.433 267.911 150.971 255.753 151.315H190.445V235.742Z" fill="white"/>
<defs>
<linearGradient id="paint0_linear_5_74" x1="-24.9896" y1="-74.8746" x2="646.422" y2="41.3375" gradientUnits="userSpaceOnUse">
<stop stop-color="#5370F9"/>
<stop offset="1" stop-color="#3D248B"/>
</linearGradient>
</defs>
</svg>
